<?xml version="1.0" standalone="no"?>
<!DOCTYPE svg PUBLIC "-//W3C//DTD SVG 20010904//EN"
 "http://www.w3.org/TR/2001/REC-SVG-20010904/DTD/svg10.dtd">
<svg version="1.0" xmlns="http://www.w3.org/2000/svg"
 width="512.000000pt" height="512.000000pt" viewBox="0 0 512.000000 512.000000"
 preserveAspectRatio="xMidYMid meet">
<metadata>
Created by potrace 1.14, written by Peter Selinger 2001-2017
</metadata>
<g transform="translate(0.000000,512.000000) scale(0.100000,-0.100000)"
fill="#000000" stroke="none">
<path d="M644 5066 c-261 -129 -453 -322 -582 -585 l-57 -116 0 -1785 0 -1785
57 -116 c153 -312 412 -540 735 -649 l91 -30 1662 0 1662 0 91 30 c367 123
660 412 791 778 l26 73 0 1699 0 1699 -26 73 c-112 313 -338 566 -638 714
l-110 54 -1796 0 -1796 0 -110 -54z m1876 -650 c120 -4 274 -14 340 -22 67 -8
191 -16 229 -15 18 1 50 -3 70 -9 20 -5 81 -14 136 -19 55 -5 114 -16 130 -25
17 -9 35 -16 41 -16 7 0 25 -7 40 -15 16 -8 39 -15 51 -15 12 0 25 -5 29 -11
4 -6 36 -25 72 -41 36 -16 71 -36 79 -44 8 -8 24 -14 35 -14 11 0 37 -13 58
-30 21 -16 44 -30 52 -30 8 0 23 -9 33 -20 10 -11 25 -20 33 -20 15 0 75 -39
80 -52 2 -4 11 -8 21 -8 19 0 61 -35 61 -51 0 -12 54 -81 93 -117 15 -14 27
-31 27 -37 0 -7 7 -18 15 -25 8 -7 15 -21 15 -31 0 -20 48 -95 79 -123 11 -10
30 -38 42 -63 11 -24 41 -65 65 -91 25 -26 56 -71 69 -100 13 -29 34 -65 45
-79 11 -14 20 -34 20 -44 0 -10 11 -44 25 -75 21 -47 24 -63 16 -88 -6 -17 -8
-83 -6 -145 2 -63 0 -133 -6 -155 -6 -23 -14 -66 -19 -96 -4 -30 -11 -66 -14
-80 -6 -23 -11 -66 -20 -187 -2 -22 -7 -46 -10 -52 -4 -5 -1 -19 6 -30 10 -16
9 -30 -1 -71 -9 -33 -10 -55 -3 -63 5 -6 8 -28 6 -47 -2 -19 -4 -55 -4 -80 -1
-91 -22 -236 -41 -279 -10 -24 -19 -54 -19 -66 0 -43 -12 -84 -31 -104 -12
-13 -19 -35 -19 -60 0 -42 -17 -91 -32 -91 -4 0 -8 -9 -8 -20 0 -31 -20 -67
-44 -78 -13 -6 -22 -20 -24 -38 -1 -15 -11 -37 -22 -49 -11 -12 -20 -26 -20
-31 0 -6 -11 -17 -25 -24 -13 -7 -27 -21 -30 -30 -3 -10 -14 -25 -25 -35 -11
-10 -20 -26 -20 -36 0 -9 -23 -41 -50 -69 -28 -29 -62 -72 -76 -96 -14 -24
-31 -44 -38 -44 -6 0 -34 -20 -61 -45 -28 -25 -55 -45 -62 -45 -26 0 -65 -25
-78 -51 -12 -21 -23 -28 -57 -32 -58 -7 -116 -22 -157 -43 -19 -10 -69 -21
-110 -25 -86 -9 -123 -18 -133 -33 -9 -13 -90 -17 -105 -4 -8 7 -19 5 -35 -6
-12 -9 -42 -16 -65 -16 -24 0 -52 -4 -63 -10 -11 -5 -29 -14 -39 -19 -21 -11
-69 -12 -186 -5 -97 7 -85 6 -271 4 -98 -2 -159 2 -173 9 -14 8 -21 8 -21 1 0
-20 -130 -10 -275 20 -27 6 -76 13 -109 16 -32 2 -75 11 -95 20 -20 8 -71 17
-114 19 -43 3 -90 11 -105 19 -35 18 -80 34 -114 40 -14 2 -35 9 -45 14 -10 5
-38 13 -63 17 -25 4 -70 17 -100 30 -52 21 -119 37 -202 50 -21 3 -38 10 -38
14 0 5 -28 23 -62 41 -35 18 -65 36 -68 39 -3 4 -18 15 -34 25 -17 10 -41 32
-54 47 -13 16 -30 29 -38 29 -8 0 -14 4 -14 10 0 5 -34 44 -75 87 -48 50 -75
86 -75 101 0 14 -9 27 -24 33 -23 11 -46 47 -46 74 0 7 -6 20 -14 27 -24 24
-44 72 -51 123 -4 28 -16 73 -25 100 -10 28 -18 57 -19 65 -1 42 -13 112 -24
151 -8 24 -15 75 -16 114 -1 38 -5 74 -9 79 -11 18 -24 100 -28 181 -9 161
-10 351 -3 375 5 14 10 39 13 55 2 17 9 53 15 80 6 28 11 68 11 90 0 67 6 129
13 145 7 15 23 140 31 240 14 177 27 212 112 295 16 16 33 37 37 45 25 50 47
73 232 251 6 5 26 25 46 45 40 40 40 39 159 104 45 25 103 57 129 72 25 15 61
34 79 43 18 8 50 32 72 52 23 20 43 33 47 30 3 -4 18 2 33 13 16 11 34 20 42
20 8 0 30 14 48 30 18 17 41 30 51 30 9 0 22 7 29 15 7 8 31 20 54 25 55 14
152 54 206 85 14 8 42 15 63 15 20 0 45 4 55 9 51 27 289 73 337 65 17 -3 77
-6 135 -8z"/>
<path d="M2344 4278 c-16 -5 -51 -6 -77 -2 -29 3 -53 2 -61 -5 -7 -6 -42 -20
-79 -31 -36 -11 -69 -25 -72 -30 -3 -6 -16 -10 -29 -10 -12 0 -31 -8 -42 -18
-16 -15 -87 -38 -138 -46 -8 -1 -20 -7 -27 -13 -8 -6 -29 -14 -48 -18 -18 -4
-43 -16 -55 -26 -57 -51 -105 -83 -113 -75 -6 6 -136 -64 -141 -76 -2 -5 -25
-20 -50 -34 -79 -42 -117 -65 -127 -78 -5 -7 -27 -16 -48 -20 -59 -11 -79 -24
-111 -67 -15 -22 -37 -44 -47 -47 -21 -8 -119 -100 -119 -112 0 -4 -34 -43
-76 -86 -85 -87 -103 -111 -109 -145 -3 -12 -9 -25 -13 -28 -5 -3 -12 -33 -15
-66 -3 -33 -8 -71 -11 -85 -21 -89 -29 -146 -32 -225 -5 -122 -8 -148 -16
-161 -4 -6 -5 -23 -2 -38 2 -15 -2 -41 -10 -59 -27 -61 -35 -200 -22 -402 5
-71 9 -143 10 -159 1 -16 6 -31 13 -33 7 -3 9 -19 7 -44 -3 -23 -1 -39 6 -39
6 0 10 -29 10 -74 0 -40 6 -89 14 -107 7 -19 11 -40 9 -47 -4 -12 19 -128 35
-172 3 -8 4 -21 3 -29 -1 -8 5 -30 15 -50 10 -20 25 -52 33 -71 9 -19 26 -46
39 -59 12 -13 25 -34 28 -46 3 -13 17 -28 30 -34 14 -6 32 -27 40 -47 14 -34
118 -144 136 -144 4 0 17 -11 30 -24 13 -13 37 -30 53 -38 17 -9 49 -25 71
-37 23 -11 55 -21 71 -21 16 0 33 -4 39 -9 5 -5 23 -11 40 -14 17 -3 40 -9 50
-15 20 -10 68 -21 121 -28 17 -2 44 -11 60 -19 15 -8 47 -15 70 -15 23 0 44
-4 47 -9 6 -10 91 -26 119 -23 10 1 28 -5 41 -14 14 -8 43 -14 67 -13 24 0 62
-5 84 -11 22 -7 69 -15 105 -17 40 -3 74 -12 90 -23 32 -23 97 -28 129 -10 30
16 185 6 235 -15 11 -5 38 -3 61 3 27 7 61 8 96 3 29 -5 64 -5 78 0 14 4 79
10 144 13 76 3 124 9 134 18 9 7 43 16 77 19 34 4 79 12 101 19 50 15 162 39
235 50 89 13 215 64 250 101 8 8 30 22 47 30 19 8 37 25 42 40 5 15 24 38 42
51 17 12 42 46 54 73 13 28 32 60 44 72 12 12 21 29 21 36 0 8 18 37 40 63 22
27 40 54 40 60 0 6 6 17 14 23 21 18 93 170 107 226 6 28 16 54 20 60 5 5 9
21 9 36 0 15 4 30 9 33 14 9 27 73 35 179 3 38 10 76 15 85 6 11 4 29 -6 54
-11 26 -13 50 -7 76 9 44 13 108 17 292 3 104 9 151 26 205 13 45 20 85 17
112 -3 24 0 45 5 48 13 8 11 55 -2 55 -5 0 -8 4 -4 9 3 5 1 12 -3 15 -13 7 -3
53 14 66 10 9 10 18 2 38 -5 15 -14 50 -18 77 -23 139 -51 194 -115 226 -24
12 -43 25 -43 28 5 18 -15 49 -37 59 -14 6 -25 17 -25 24 0 8 -11 30 -25 50
-28 42 -32 93 -10 122 22 28 18 58 -10 100 -14 20 -25 39 -25 41 0 2 -11 17
-25 32 -14 15 -34 39 -46 51 -11 13 -24 34 -29 47 -5 14 -20 26 -39 30 -17 4
-37 16 -45 27 -15 21 -108 64 -162 74 -20 3 -37 15 -45 31 -13 24 -122 83
-154 83 -8 0 -23 4 -33 9 -9 5 -44 20 -77 32 -33 13 -63 27 -67 32 -3 6 -54
11 -112 13 -58 1 -113 7 -123 12 -10 6 -91 13 -181 16 -90 3 -171 10 -180 15
-35 18 -357 33 -408 19z m1343 -1037 c51 -15 112 -70 123 -111 9 -35 6 -145
-6 -182 -3 -10 -11 -18 -17 -18 -7 0 -20 -9 -30 -20 -9 -11 -23 -20 -31 -20
-7 0 -31 -16 -52 -35 -41 -36 -52 -38 -144 -19 -36 7 -100 40 -112 58 -10 16
-8 145 3 151 5 4 9 21 9 39 0 22 10 42 33 66 85 90 144 114 224 91z m-1995
-140 c20 -19 34 -39 32 -46 -3 -7 7 -26 21 -43 14 -17 28 -46 31 -64 3 -18 7
-45 9 -60 3 -20 -4 -35 -30 -63 -19 -19 -35 -41 -36 -48 0 -19 -60 -61 -83
-59 -12 1 -35 -3 -51 -8 -22 -7 -46 -6 -87 5 -31 8 -82 15 -112 16 -50 2 -58
5 -78 35 -12 17 -34 39 -48 47 -59 35 -72 53 -66 92 4 20 10 45 16 54 5 10 7
21 3 25 -3 3 7 16 23 28 16 13 50 44 77 70 l49 47 106 3 c193 5 185 6 224 -31z
m1429 -110 c61 -37 67 -54 65 -196 -1 -71 -5 -136 -10 -144 -5 -7 -10 -41 -12
-75 -12 -228 -15 -247 -62 -337 -22 -42 -43 -94 -47 -115 -4 -22 -11 -45 -17
-51 -6 -7 -8 -13 -5 -13 3 0 -8 -15 -25 -34 -17 -19 -36 -45 -42 -57 -6 -12
-23 -30 -37 -38 -14 -9 -41 -26 -60 -38 -19 -13 -40 -23 -46 -23 -7 0 -13 -4
-13 -10 0 -5 -5 -10 -10 -10 -6 0 -30 -9 -53 -20 -37 -18 -61 -21 -213 -21
-132 0 -177 4 -199 15 -29 15 -115 103 -115 118 0 5 -9 28 -20 52 -19 39 -21
63 -22 232 0 260 1 286 19 306 9 10 13 25 9 34 -4 9 5 58 18 108 14 50 30 132
36 181 13 103 20 120 46 120 18 0 19 -8 16 -110 -2 -124 -7 -221 -17 -345 -9
-106 -10 -266 -4 -390 5 -86 9 -101 40 -155 23 -39 43 -61 60 -66 30 -8 197
-4 254 6 41 8 95 48 95 72 0 7 11 19 25 25 13 6 27 19 30 29 4 11 13 26 21 34
8 8 16 28 17 45 1 16 5 30 8 30 7 0 39 91 39 112 0 8 8 24 17 38 13 18 18 49
19 130 1 58 5 128 9 155 4 35 1 62 -9 87 -24 57 -17 223 12 269 29 48 52 67
87 72 37 5 61 -1 96 -22z"/>
</g>
</svg>
