<?xml version="1.0" standalone="no"?>
<!DOCTYPE svg PUBLIC "-//W3C//DTD SVG 20010904//EN"
 "http://www.w3.org/TR/2001/REC-SVG-20010904/DTD/svg10.dtd">
<svg version="1.0" xmlns="http://www.w3.org/2000/svg"
 width="452.000000pt" height="452.000000pt" viewBox="0 0 452.000000 452.000000"
 preserveAspectRatio="xMidYMid meet">
<metadata>
Created by potrace 1.11, written by Peter Selinger 2001-2013
</metadata>
<g transform="translate(0.000000,452.000000) scale(0.100000,-0.100000)"
fill="#000000" stroke="none">
<path d="M482 4211 c-19 -9 -37 -22 -40 -27 -4 -5 -23 -22 -42 -38 -42 -35
-59 -79 -64 -171 -4 -62 -1 -77 25 -129 16 -33 29 -66 29 -73 0 -8 7 -16 15
-19 9 -4 14 -11 13 -18 -1 -6 16 -50 40 -98 70 -143 72 -177 38 -478 -15 -134
-14 -223 4 -309 6 -30 9 -63 6 -74 -2 -11 3 -31 13 -46 10 -14 25 -38 34 -52
9 -15 36 -37 61 -49 39 -18 55 -20 116 -14 39 3 73 11 76 15 3 5 13 9 22 10 9
0 37 15 61 32 70 51 137 194 132 282 -3 43 -69 195 -86 195 -5 0 -33 12 -61
27 -67 35 -84 28 -84 -35 0 -26 6 -54 13 -60 7 -8 12 -41 12 -85 0 -122 -66
-250 -108 -208 -15 15 -20 303 -6 376 9 45 19 131 23 192 2 31 9 35 41 23 15
-6 36 -8 46 -5 33 11 73 93 80 165 4 36 15 107 24 159 17 91 16 114 -3 196 -8
37 -55 133 -88 180 -20 28 -125 105 -154 112 -14 3 -32 12 -41 20 -26 22 -109
25 -147 4z m159 -159 c16 -19 39 -61 79 -144 21 -44 23 -59 21 -235 -1 -103
-3 -196 -4 -206 -5 -27 -22 -25 -23 3 -2 29 -17 89 -34 140 -15 43 -16 43 -62
114 -21 31 -38 63 -38 72 0 8 -7 25 -14 37 -8 12 -18 52 -22 89 -6 64 -5 71
21 108 30 44 52 50 76 22z"/>
<path d="M3670 4192 l-24 -19 16 -106 c14 -97 14 -111 -1 -169 -14 -52 -20
-64 -40 -66 -27 -4 -61 23 -61 49 0 10 -4 21 -10 24 -5 3 -10 13 -10 21 0 8
-10 28 -21 44 -15 19 -20 36 -15 53 4 16 0 29 -10 38 -9 7 -20 24 -25 36 -12
32 -56 48 -86 32 -41 -22 -34 -85 26 -243 30 -80 97 -154 157 -175 21 -7 62
-24 90 -37 61 -28 64 -37 64 -188 0 -127 -10 -150 -67 -154 -51 -4 -100 20
-166 82 -54 51 -136 100 -184 110 -29 7 -37 3 -63 -25 -16 -19 -30 -38 -30
-44 0 -23 57 -75 110 -100 88 -43 112 -56 165 -95 28 -20 76 -50 107 -68 50
-28 65 -31 125 -30 68 2 131 20 145 42 4 6 8 24 8 39 0 16 7 30 16 34 13 5 15
24 13 125 -1 65 -6 144 -10 176 -9 67 -20 170 -24 227 -2 22 -13 102 -24 179
-21 146 -43 199 -86 209 -11 3 -29 8 -41 12 -13 4 -29 -1 -44 -13z"/>
<path d="M2835 4073 c-5 -10 -9 -70 -10 -133 -4 -183 -75 -411 -146 -468 -28
-23 -37 -55 -21 -77 4 -6 25 -25 48 -42 89 -70 139 -163 173 -323 21 -96 33
-146 42 -176 5 -17 9 -39 9 -50 0 -19 32 -54 49 -54 13 0 70 -30 76 -41 4 -5
20 -9 37 -9 l31 0 -6 73 c-5 66 -24 145 -49 207 -9 22 -17 53 -47 180 -4 19
-17 52 -29 72 -21 37 -15 61 8 33 7 -8 18 -15 26 -15 7 0 41 -23 76 -52 76
-64 77 -65 159 -158 92 -106 128 -140 147 -140 9 0 37 -7 61 -16 54 -19 64 -9
56 54 -9 60 -45 109 -192 254 -89 88 -181 165 -240 200 -18 11 -33 24 -33 30
0 5 17 24 37 41 161 140 193 176 213 243 11 36 10 50 -5 99 -16 49 -24 60 -53
72 -42 18 -88 14 -84 -7 5 -21 -20 -94 -35 -103 -7 -4 -13 -13 -13 -20 0 -12
-154 -167 -166 -167 -7 0 1 118 9 140 4 8 8 65 11 125 5 123 -4 155 -58 213
-33 35 -70 42 -81 15z"/>
<path d="M2348 4029 c-109 -89 -130 -120 -185 -274 -14 -38 -31 -77 -39 -86
-19 -21 -18 -124 1 -180 9 -24 31 -75 50 -114 44 -90 85 -198 85 -222 0 -11 6
-25 13 -31 8 -9 12 -56 12 -163 0 -135 -2 -152 -19 -164 -31 -23 -9 -64 46
-85 26 -10 54 -25 63 -34 19 -19 29 -20 56 -5 20 10 36 40 49 95 7 31 -12 255
-29 334 -5 25 -17 63 -27 85 -42 99 -36 124 19 81 61 -50 81 -73 101 -121 10
-22 22 -48 27 -57 8 -16 51 -182 81 -313 14 -59 37 -81 95 -90 25 -4 52 -16
63 -28 18 -19 22 -19 35 -6 13 13 13 23 -5 84 -11 39 -22 79 -24 90 -6 26 -73
234 -85 260 -35 79 -63 124 -111 173 -80 82 -150 142 -166 142 -8 0 -14 6 -14
13 1 16 35 57 48 57 6 0 49 37 97 83 85 82 86 83 74 113 -7 16 -19 36 -26 45
-7 8 -13 21 -13 27 0 23 -41 23 -87 0 -42 -21 -57 -34 -110 -93 -30 -34 -101
-85 -117 -85 -25 0 -22 11 30 128 13 29 24 57 24 63 0 17 31 72 64 112 17 22
53 49 83 63 29 13 53 30 53 38 0 44 -77 116 -125 116 -14 0 -51 -22 -87 -51z"/>
<path d="M1357 4022 c-11 -12 -13 -22 -6 -34 7 -12 6 -25 -2 -40 -15 -29 -38
-227 -39 -337 0 -90 20 -187 51 -239 10 -18 19 -37 19 -42 0 -16 -86 -60 -118
-60 -26 0 -34 6 -45 33 -20 46 -48 239 -37 251 10 13 -13 111 -32 133 -35 43
-95 48 -126 10 -20 -24 -21 -210 -1 -307 10 -46 15 -88 12 -93 -2 -4 0 -14 6
-21 6 -7 18 -34 25 -61 8 -26 21 -54 29 -63 8 -10 27 -46 42 -82 21 -53 25
-74 19 -115 -3 -27 -12 -62 -20 -76 -8 -17 -10 -36 -5 -55 7 -25 12 -29 47
-30 21 0 46 -4 56 -8 9 -4 29 -6 45 -4 24 3 30 10 45 53 20 62 23 148 4 183
-25 49 -46 102 -46 117 0 11 10 14 43 11 23 -2 47 0 52 4 6 4 24 11 42 15 30
6 33 4 50 -32 14 -31 17 -67 17 -193 0 -85 -3 -167 -7 -182 -12 -46 18 -64
105 -62 40 1 77 2 82 3 5 0 6 78 2 187 l-6 185 -47 112 c-26 62 -52 117 -60
123 -7 6 -13 19 -13 28 0 9 -4 16 -8 16 -4 0 -14 17 -21 38 -8 20 -19 40 -24
44 -18 11 -19 210 -1 301 25 123 29 212 11 237 -22 32 -78 70 -102 70 -12 0
-29 -8 -38 -18z"/>
<path d="M1628 3898 c-34 -35 -48 -58 -44 -71 2 -10 -4 -45 -15 -79 -18 -52
-19 -67 -9 -115 7 -31 21 -70 31 -87 10 -17 19 -37 19 -45 0 -8 12 -44 26 -80
22 -53 29 -96 39 -221 7 -85 11 -158 8 -163 -2 -4 6 -38 18 -75 13 -37 22 -70
21 -74 -3 -12 107 -93 141 -102 56 -16 159 -12 188 7 60 40 74 229 29 397 -60
225 -63 320 -15 464 15 44 28 106 29 138 l2 58 -43 21 c-49 24 -82 22 -97 -6
-6 -11 -19 -32 -29 -47 -67 -101 -98 -337 -62 -461 10 -34 22 -66 25 -72 4 -5
10 -30 14 -55 4 -24 11 -49 16 -55 12 -14 19 -184 8 -191 -4 -3 -8 -19 -8 -35
0 -23 -4 -30 -17 -27 -23 4 -31 50 -41 234 -5 84 -14 159 -19 166 -6 7 -14 28
-18 47 -7 34 -54 140 -72 164 -22 27 -35 130 -24 180 6 27 9 52 6 57 -3 5 0
12 8 17 7 4 20 20 30 36 16 25 16 29 2 57 -15 28 -68 70 -89 70 -4 0 -31 -23
-58 -52z"/>
<path d="M4060 3171 c0 -6 5 -13 10 -16 6 -3 10 1 10 9 0 9 -4 16 -10 16 -5 0
-10 -4 -10 -9z"/>
<path d="M4127 2613 c-8 -13 2 -43 14 -43 10 0 10 8 0 34 -5 12 -10 16 -14 9z"/>
<path d="M3836 2561 c-14 -15 -14 -21 6 -60 32 -65 28 -214 -9 -333 -25 -79
-30 -88 -53 -89 -23 -2 -24 -2 -2 -6 18 -4 21 -9 15 -31 -3 -15 -16 -40 -28
-57 -12 -16 -25 -37 -29 -45 -3 -8 -15 -28 -26 -45 -11 -16 -23 -36 -26 -42
-3 -7 -14 -13 -25 -13 -13 0 -20 10 -24 38 -3 20 -10 62 -16 92 -5 30 -17 91
-25 135 -7 44 -21 103 -29 130 -8 28 -20 68 -26 90 -6 22 -24 66 -40 98 -16
32 -29 65 -29 72 0 8 -8 19 -18 24 -24 13 -192 4 -267 -14 -33 -8 -73 -16 -90
-17 -28 -3 -30 -5 -28 -43 2 -22 17 -66 34 -98 22 -41 33 -77 36 -120 3 -34
11 -76 19 -93 12 -27 17 -65 28 -204 3 -34 13 -129 38 -355 7 -60 13 -135 13
-165 1 -30 8 -107 15 -170 9 -87 10 -135 1 -195 -6 -44 -13 -127 -15 -185 -3
-58 -14 -148 -25 -200 -24 -109 -27 -198 -8 -224 7 -10 33 -22 58 -26 49 -10
307 8 325 22 7 5 15 23 19 41 4 17 9 34 10 37 1 3 5 19 9 35 4 17 14 47 22 68
8 21 21 81 29 135 8 53 19 113 23 132 11 44 9 402 -3 493 -9 78 -1 84 48 35
48 -49 102 -134 137 -218 17 -41 35 -84 39 -95 5 -11 14 -40 21 -65 7 -25 18
-65 26 -90 7 -25 24 -101 39 -170 14 -69 31 -141 38 -160 6 -19 12 -73 13
-120 1 -47 3 -91 3 -99 1 -8 8 -11 21 -8 10 3 25 -2 32 -10 18 -22 176 -7 246
23 109 48 151 76 152 101 0 7 -9 41 -20 75 -11 35 -24 115 -29 178 -12 140
-33 239 -81 375 -12 33 -23 67 -25 75 -5 22 -52 137 -77 190 -21 43 -193 230
-211 230 -5 0 -25 14 -44 30 -18 17 -38 30 -43 30 -5 0 -14 9 -20 20 -9 17 -2
25 58 69 71 52 162 169 162 208 0 11 13 37 30 59 16 21 30 48 30 58 0 11 7 28
16 37 11 12 17 38 18 76 1 32 4 63 8 68 4 6 6 31 5 57 -1 25 4 57 12 71 16 30
8 89 -14 107 -8 7 -15 21 -15 31 0 23 7 22 -200 19 -94 -1 -176 3 -192 9 -21
8 -29 6 -42 -8z"/>
<path d="M2445 2506 c-120 -16 -256 -46 -249 -57 2 -4 -4 -10 -15 -14 -11 -3
-22 -12 -25 -20 -3 -8 -11 -15 -18 -15 -7 0 -22 -19 -33 -41 -16 -34 -19 -63
-20 -162 0 -97 15 -232 25 -232 12 0 28 -203 29 -371 2 -195 0 -214 -20 -260
-11 -27 -23 -74 -25 -104 -2 -30 -15 -99 -29 -153 -14 -53 -24 -101 -21 -105
2 -4 0 -38 -5 -77 -5 -38 -12 -92 -15 -120 -3 -27 -13 -58 -21 -67 -33 -37 21
-258 67 -276 8 -3 34 -20 57 -38 43 -33 88 -45 178 -50 28 -1 87 -5 132 -9
116 -11 263 8 313 40 22 14 42 25 45 25 16 0 105 78 157 138 61 69 97 135 129
234 30 95 28 436 -4 476 -5 6 -22 12 -38 12 -15 0 -38 4 -51 8 -47 18 -230
-20 -253 -51 -7 -9 -17 -17 -23 -17 -17 0 -32 -60 -31 -130 0 -36 -2 -81 -5
-100 -3 -19 -10 -80 -16 -135 -13 -124 -13 -123 -30 -160 -54 -112 -136 -193
-184 -181 -30 7 -85 63 -102 105 -8 19 -18 69 -23 110 -7 62 -5 90 11 149 24
95 44 153 79 234 16 36 29 73 29 81 0 8 7 20 15 27 8 7 15 21 15 32 0 11 7 32
15 46 14 26 51 156 55 197 7 58 0 316 -10 355 -6 25 -13 74 -15 110 -3 36 -12
97 -21 136 -17 78 -15 257 3 275 13 13 66 -31 100 -84 22 -36 25 -48 20 -104
-3 -43 -1 -63 7 -65 118 -15 265 -12 286 7 9 8 22 15 28 15 7 0 12 6 12 14 0
7 7 19 16 27 13 10 14 24 9 68 -4 31 -10 60 -13 66 -4 5 -5 22 -4 36 3 21 -7
34 -45 65 -73 59 -111 84 -128 84 -17 0 -21 16 -5 22 6 2 -11 3 -37 4 -27 0
-82 3 -123 6 -42 4 -119 1 -175 -6z"/>
<path d="M213 2496 c-60 -16 -66 -24 -55 -84 9 -51 6 -757 -3 -799 -3 -12 0
-23 7 -25 16 -6 12 -105 -7 -159 -17 -52 -19 -95 -4 -105 6 -3 8 -17 3 -33
-16 -60 -27 -720 -12 -738 7 -9 7 -26 0 -53 -6 -23 -6 -42 -1 -46 5 -3 9 -29
9 -57 0 -29 3 -62 6 -74 7 -27 55 -47 91 -39 16 4 53 12 83 17 30 6 65 15 77
21 11 6 26 7 32 4 10 -6 43 1 106 24 22 8 24 30 23 200 -2 200 0 298 13 480 5
69 11 238 14 375 3 138 7 261 9 275 1 14 4 38 4 54 2 28 3 28 40 21 34 -7 160
-17 207 -17 177 1 385 45 385 82 0 5 -24 20 -53 34 -53 26 -53 26 -263 22
-126 -2 -222 -9 -242 -16 -18 -7 -43 -9 -56 -6 -22 5 -25 13 -30 68 -19 216
-26 278 -36 323 -12 55 -15 93 -7 102 17 16 107 25 302 28 284 5 463 29 451
61 -3 9 -6 20 -6 25 0 5 -11 9 -24 9 -14 0 -31 7 -39 15 -12 12 -66 15 -306
17 -160 2 -292 -1 -294 -5 -4 -14 -124 -21 -154 -9 -39 16 -219 21 -270 8z"/>
<path d="M3660 2427 c0 -19 16 -31 24 -18 3 5 -1 14 -9 21 -12 10 -15 10 -15
-3z"/>
<path d="M3706 2333 c9 -39 20 -57 27 -46 3 5 0 21 -8 36 -7 14 -11 28 -7 31
3 3 0 6 -7 6 -7 0 -9 -9 -5 -27z"/>
<path d="M1704 2310 c-6 -6 -44 -13 -87 -16 -87 -8 -100 -18 -111 -94 -4 -25
-11 -54 -16 -65 -13 -27 -32 -222 -31 -315 1 -87 5 -124 20 -200 6 -30 22
-122 36 -203 14 -81 31 -156 37 -166 8 -14 8 -30 0 -64 -7 -25 -12 -75 -12
-110 0 -60 -19 -147 -41 -189 -5 -10 -9 -25 -9 -33 0 -14 -11 -33 -67 -115
-77 -114 -127 -117 -195 -12 -45 69 -65 142 -79 285 -10 97 -8 130 15 325 15
119 29 226 31 238 6 26 -28 44 -70 37 -17 -2 -51 -5 -77 -7 -26 -1 -53 -8 -61
-15 -8 -6 -19 -11 -23 -10 -21 5 -86 -15 -91 -27 -3 -8 -14 -14 -25 -14 -16 0
-19 -5 -15 -21 3 -11 -4 -59 -16 -106 -21 -80 -21 -85 -4 -97 22 -17 22 -31
-2 -65 -11 -16 -18 -36 -15 -48 3 -11 -1 -25 -10 -33 -11 -9 -13 -16 -6 -25 8
-10 19 -126 20 -216 0 -55 38 -210 56 -230 10 -11 23 -35 29 -52 6 -19 21 -37
38 -45 15 -7 27 -18 28 -25 0 -7 25 -32 55 -55 72 -57 103 -61 324 -41 137 12
243 38 306 74 60 35 171 151 185 194 7 20 21 53 32 75 45 85 52 139 51 366 -1
179 -6 247 -28 405 -29 197 -30 282 -6 405 32 159 28 268 -11 299 -25 20 -138
28 -155 11z"/>
<path d="M3730 2250 c0 -5 5 -10 10 -10 6 0 10 5 10 10 0 6 -4 10 -10 10 -5 0
-10 -4 -10 -10z"/>
</g>
</svg>
