<?xml version="1.0" standalone="no"?>
<!DOCTYPE svg PUBLIC "-//W3C//DTD SVG 20010904//EN"
 "http://www.w3.org/TR/2001/REC-SVG-20010904/DTD/svg10.dtd">
<svg version="1.0" xmlns="http://www.w3.org/2000/svg"
 width="150.000000pt" height="150.000000pt" viewBox="0 0 150.000000 150.000000"
 preserveAspectRatio="xMidYMid meet">
<metadata>
Created by potrace 1.11, written by Peter Selinger 2001-2013
</metadata>
<g transform="translate(0.000000,150.000000) scale(0.100000,-0.100000)"
fill="#000000" stroke="none">
<path d="M0 750 l0 -750 750 0 750 0 0 750 0 750 -750 0 -750 0 0 -750z m318
529 c2 -10 -6 -19 -18 -22 -19 -5 -21 -10 -15 -51 6 -38 5 -46 -8 -46 -25 0
-50 61 -38 93 6 15 17 27 26 27 8 0 15 5 15 11 0 17 34 6 38 -12z m913 -16
c15 -39 27 -173 15 -166 -5 4 -6 -5 -3 -19 5 -17 2 -30 -8 -38 -10 -9 -15 -9
-15 -1 0 6 5 11 12 11 9 0 9 3 0 12 -7 7 -12 23 -12 38 -1 28 -21 60 -39 60
-21 0 -61 52 -61 79 l0 26 16 -30 c36 -69 64 -70 64 -1 0 38 6 56 17 56 2 0 8
-12 14 -27z m-851 -39 c11 -25 17 -50 13 -57 -4 -7 -9 -21 -10 -32 -6 -59 -9
-69 -19 -72 -8 -3 -11 16 -10 58 1 39 6 64 14 67 6 2 12 8 12 14 0 7 -5 7 -13
-1 -11 -8 -16 -5 -25 15 -7 14 -12 34 -12 44 0 32 27 12 50 -36z m477 12 c0
-8 -6 -12 -14 -9 -7 3 -13 0 -13 -6 0 -6 -7 -8 -15 -5 -17 7 -19 -4 -6 -25 10
-15 -7 -53 -20 -45 -14 8 -17 -25 -3 -37 11 -9 19 -8 36 7 12 11 18 13 14 7
-5 -9 0 -13 15 -13 18 0 20 2 9 15 -16 20 1 41 25 31 23 -8 15 -27 -24 -53
l-32 -22 46 -51 c25 -28 45 -55 45 -60 0 -15 2 -23 17 -57 18 -43 17 -53 -7
-53 -14 0 -21 9 -26 38 -11 62 -34 110 -61 128 -26 16 -26 16 -19 -7 5 -13 9
-45 11 -71 2 -26 6 -51 9 -56 10 -16 -11 -34 -33 -27 -17 5 -20 11 -15 28 9
28 7 73 -7 114 -6 18 -8 37 -4 43 4 6 1 9 -7 8 -7 -2 -13 4 -13 12 0 8 -4 18
-9 21 -10 8 2 69 14 69 5 0 7 6 4 14 -7 18 53 86 70 80 7 -3 13 -11 13 -18z
m125 -22 c-7 -36 -22 -39 -22 -5 0 22 4 31 13 28 6 -2 10 -13 9 -23z m-433
-35 c-14 -26 -29 -24 -29 5 0 19 4 23 20 19 16 -4 18 -9 9 -24z m76 -8 c-4
-18 1 -48 14 -82 14 -35 17 -57 11 -63 -15 -15 -12 -30 3 -18 10 9 13 4 13
-21 0 -18 -5 -35 -11 -39 -6 -5 -5 -11 5 -18 43 -28 51 7 25 106 -15 56 -13
83 7 137 11 28 33 36 41 15 2 -7 0 -24 -5 -38 -11 -28 -7 -159 4 -166 10 -6
10 -65 0 -80 -10 -17 -56 -14 -80 5 -16 13 -21 30 -25 84 -2 37 0 67 4 67 5 0
6 7 3 15 -4 8 -10 13 -14 10 -22 -13 -29 77 -8 103 16 19 20 14 13 -17z m449
-15 c3 -25 -11 -31 -27 -11 -5 6 -6 2 -3 -9 4 -12 -1 -25 -14 -36 -21 -18 -21
-19 52 -89 58 -55 70 -72 61 -82 -10 -10 -25 -1 -72 44 -60 57 -89 73 -76 40
29 -72 42 -143 28 -143 -21 1 -35 22 -52 84 -10 37 -29 78 -41 91 -20 21 -21
26 -8 44 8 12 18 18 23 13 5 -4 5 -1 1 6 -9 16 1 62 13 62 5 0 11 -13 15 -30
7 -36 41 -42 49 -9 3 11 15 23 26 26 13 3 18 10 14 21 -4 10 -3 14 1 10 4 -3
9 -18 10 -32z m-748 -52 c13 -43 1 -121 -21 -136 -6 -5 -5 -8 3 -8 7 0 12 -15
12 -41 0 -36 2 -40 22 -37 26 3 43 60 27 90 -14 26 7 32 31 8 52 -52 -9 -157
-79 -135 -29 9 -48 45 -30 56 10 6 11 9 2 9 -14 0 -17 95 -4 140 4 15 1 36 -7
52 -7 15 -10 33 -7 38 14 22 39 4 51 -36z m130 -6 c-1 -29 5 -49 17 -60 21
-22 27 -22 63 -3 25 13 26 20 2 16 -8 -1 -15 24 -17 62 0 17 4 27 13 27 8 0
14 -10 14 -24 0 -13 14 -52 31 -87 17 -34 31 -74 30 -88 0 -24 -1 -24 -9 -6
-7 16 -9 17 -9 3 -1 -9 4 -20 9 -23 6 -3 10 -17 10 -31 0 -19 -4 -23 -22 -21
-20 3 -22 9 -19 50 4 68 -5 87 -40 87 l-30 0 6 -55 c7 -54 7 -55 -19 -55 -31
0 -30 -2 -11 44 13 29 13 36 2 36 -20 0 -34 39 -31 85 2 28 0 35 -6 25 -13
-20 -13 -8 0 24 6 18 6 26 -1 26 -6 0 -7 5 -4 10 12 20 22 0 21 -42z m693 -42
c8 -9 21 -16 30 -16 9 0 25 -10 35 -21 18 -22 18 -22 -12 -16 -16 3 -45 16
-65 29 -19 13 -43 28 -53 34 -10 6 -14 15 -10 22 8 14 53 -6 75 -32z m152
-250 c18 11 30 -27 24 -77 -6 -52 -30 -104 -61 -130 -13 -10 -16 -9 -21 9 -6
26 -23 29 -24 5 0 -10 -3 -13 -5 -6 -3 7 -12 9 -20 6 -11 -4 -9 6 7 43 12 29
21 72 22 105 l0 56 36 -8 c19 -4 38 -6 42 -3z m-856 -26 c-11 -5 -57 -9 -101
-9 -98 -1 -110 -10 -94 -70 6 -22 10 -43 9 -48 -7 -43 -2 -46 79 -40 42 4 84
3 92 -3 22 -14 -4 -21 -90 -23 -86 -2 -77 22 -84 -217 -3 -96 -5 -176 -5 -177
-1 0 -22 -8 -47 -17 l-46 -15 6 23 c4 15 1 26 -6 28 -12 4 -14 68 -10 425 l2
152 68 3 c108 5 250 -3 227 -12z m465 5 c18 -9 30 -24 30 -35 0 -24 -6 -25
-28 -3 -16 16 -17 15 -23 -13 -6 -25 -7 -26 -9 -6 -1 12 -3 27 -4 32 0 6 -5 9
-11 8 -5 -2 -9 -8 -9 -15 1 -9 -3 -9 -18 0 -15 10 -21 9 -28 -3 -5 -8 -7 -21
-5 -29 12 -31 24 -146 21 -195 -2 -28 -18 -88 -36 -133 -36 -89 -36 -136 -1
-167 16 -15 22 -15 39 -5 11 7 25 23 31 36 9 20 23 107 24 151 0 17 43 34 76
30 23 -3 25 -7 29 -65 3 -46 -1 -68 -14 -90 -31 -48 -85 -93 -113 -93 -14 0
-44 -3 -66 -6 -38 -6 -39 -6 -20 10 19 16 19 16 -7 12 -23 -4 -28 -1 -28 16 0
15 -4 18 -16 14 -14 -5 -15 -4 -4 8 10 13 9 18 -3 30 -8 8 -17 12 -21 9 -3 -4
-6 -1 -6 5 0 7 4 12 9 12 4 0 6 11 3 25 -2 15 1 52 7 83 6 31 12 75 14 97 1
22 7 43 12 47 6 5 5 8 -3 8 -8 0 -12 14 -12 38 0 20 -2 63 -4 94 -3 51 -1 59
19 72 35 23 75 31 75 15 1 -9 4 -8 11 4 12 21 50 22 89 2z m165 -5 c3 -5 1
-10 -4 -10 -6 0 -11 5 -11 10 0 6 2 10 4 10 3 0 8 -4 11 -10z m45 -36 c0 -8
-5 -14 -11 -14 -5 0 -8 4 -4 9 3 5 0 13 -6 17 -9 5 -10 -1 -5 -22 9 -36 15
-42 25 -26 4 7 13 -13 20 -48 14 -64 30 -77 78 -66 20 6 24 3 21 -11 -2 -10 5
-23 17 -29 11 -6 19 -17 17 -25 -2 -8 0 -11 4 -7 9 10 35 -12 28 -23 -3 -5 0
-8 7 -7 8 2 19 -15 27 -42 7 -25 18 -53 23 -63 18 -33 30 -130 17 -138 -9 -6
-9 -11 1 -23 10 -12 9 -16 -8 -25 -23 -13 -91 -15 -91 -3 0 5 10 14 23 20 18
10 19 11 3 9 -16 -2 -23 8 -34 48 -8 28 -21 73 -29 100 -15 51 -57 125 -71
125 -4 0 -8 -37 -8 -82 -1 -88 -15 -184 -30 -197 -5 -5 -26 -12 -48 -15 -37
-7 -38 -6 -34 17 4 18 1 24 -9 20 -7 -3 -13 0 -13 6 0 6 4 11 9 11 4 0 8 26 7
57 0 39 4 58 13 61 10 3 10 6 1 12 -7 4 -15 60 -22 146 -5 76 -12 146 -16 154
-3 8 -7 29 -8 45 -3 25 -2 26 6 10 7 -15 9 -16 9 -4 1 11 10 17 28 17 15 0 29
5 31 11 5 16 32 -6 32 -25z m-480 -19 c0 -8 -6 -15 -12 -15 -8 0 -9 -3 -3 -8
6 -4 10 -45 11 -92 0 -47 2 -126 4 -176 2 -77 -1 -97 -20 -133 -14 -28 -26
-41 -35 -37 -9 3 -12 0 -9 -8 4 -9 -3 -14 -18 -14 -38 -1 -88 -9 -95 -16 -12
-11 -22 -6 -17 8 4 11 -3 14 -30 12 -46 -4 -67 19 -73 81 -6 53 -6 62 -1 113
3 27 8 36 25 38 16 2 20 8 16 20 -6 15 -5 15 11 3 15 -13 19 -13 27 0 6 9 8
-10 4 -56 -8 -99 4 -156 37 -174 25 -14 28 -14 46 9 32 39 46 102 38 180 -5
53 -3 70 6 71 7 0 4 4 -7 9 -11 5 -14 9 -6 9 11 1 11 4 1 16 -15 18 -15 111 0
149 8 23 15 26 55 26 33 0 45 -4 45 -15z"/>
<path d="M1255 680 c-3 -6 1 -7 9 -4 18 7 21 14 7 14 -6 0 -13 -4 -16 -10z"/>
<path d="M1223 653 c-7 -2 -13 -8 -13 -13 0 -10 38 -1 46 11 6 10 -13 11 -33
2z"/>
<path d="M740 740 c0 -5 5 -10 11 -10 5 0 7 5 4 10 -3 6 -8 10 -11 10 -2 0 -4
-4 -4 -10z"/>
<path d="M765 660 c-3 -5 -1 -10 4 -10 6 0 11 5 11 10 0 6 -2 10 -4 10 -3 0
-8 -4 -11 -10z"/>
<path d="M745 528 c-4 -11 -1 -24 9 -33 18 -18 21 -5 6 30 -7 18 -8 18 -15 3z"/>
<path d="M716 305 c-3 -8 -1 -15 3 -15 5 0 11 7 15 15 3 8 1 15 -3 15 -5 0
-11 -7 -15 -15z"/>
<path d="M931 274 c0 -11 3 -14 6 -6 3 7 2 16 -1 19 -3 4 -6 -2 -5 -13z"/>
<path d="M1065 730 c3 -5 8 -10 11 -10 2 0 4 5 4 10 0 6 -5 10 -11 10 -5 0 -7
-4 -4 -10z"/>
<path d="M1080 350 c0 -5 5 -10 10 -10 6 0 10 5 10 10 0 6 -4 10 -10 10 -5 0
-10 -4 -10 -10z"/>
<path d="M1050 341 c0 -5 9 -13 20 -16 11 -4 18 -11 15 -16 -4 -5 -1 -9 4 -9
17 0 13 21 -6 36 -21 16 -33 18 -33 5z"/>
<path d="M1310 339 c0 -5 5 -7 10 -4 6 3 10 1 10 -5 0 -6 5 -8 11 -4 8 4 7 9
-2 15 -19 12 -29 11 -29 -2z"/>
<path d="M1060 290 c0 -5 5 -10 11 -10 5 0 7 5 4 10 -3 6 -8 10 -11 10 -2 0
-4 -4 -4 -10z"/>
<path d="M1340 280 c0 -5 5 -10 10 -10 6 0 10 5 10 10 0 6 -4 10 -10 10 -5 0
-10 -4 -10 -10z"/>
<path d="M1090 269 c0 -5 5 -7 10 -4 6 3 10 8 10 11 0 2 -4 4 -10 4 -5 0 -10
-5 -10 -11z"/>
<path d="M1340 240 c0 -5 5 -10 10 -10 6 0 10 5 10 10 0 6 -4 10 -10 10 -5 0
-10 -4 -10 -10z"/>
<path d="M576 545 c4 -8 8 -15 10 -15 2 0 4 7 4 15 0 8 -4 15 -10 15 -5 0 -7
-7 -4 -15z"/>
</g>
</svg>
